<mxfile host="app.diagrams.net" modified="2023-09-12T10:12:49.493Z" agent="Mozilla/5.0 (X11; Ubuntu; Linux x86_64; rv:109.0) Gecko/20100101 Firefox/117.0" etag="qQf0aaYDqFXZGvhiOKfB" version="21.7.4" type="github">
  <diagram id="R2lEEEUBdFMjLlhIrx00" name="Page-1">
    <mxGraphModel dx="830" dy="483" grid="1" gridSize="10" guides="1" tooltips="1" connect="1" arrows="1" fold="1" page="1" pageScale="1" pageWidth="850" pageHeight="1100" background="#f6f5f4" math="0" shadow="0" extFonts="Permanent Marker^https://fonts.googleapis.com/css?family=Permanent+Marker">
      <root>
        <mxCell id="0" />
        <mxCell id="1" parent="0" />
        <mxCell id="8MVP1e_BxWUSzV_E4plU-2" value="Mark" style="swimlane;whiteSpace=wrap;html=1;" parent="1" vertex="1">
          <mxGeometry x="305" y="290" width="175" height="90" as="geometry" />
        </mxCell>
        <mxCell id="8MVP1e_BxWUSzV_E4plU-3" value="" style="endArrow=classic;html=1;rounded=0;" parent="1" edge="1">
          <mxGeometry width="50" height="50" relative="1" as="geometry">
            <mxPoint x="400" y="290" as="sourcePoint" />
            <mxPoint x="400" y="190" as="targetPoint" />
          </mxGeometry>
        </mxCell>
        <mxCell id="8MVP1e_BxWUSzV_E4plU-5" value="Sarah" style="swimlane;whiteSpace=wrap;html=1;" parent="1" vertex="1">
          <mxGeometry x="80" y="280" width="175" height="90" as="geometry" />
        </mxCell>
        <mxCell id="8MVP1e_BxWUSzV_E4plU-6" value="Alex" style="swimlane;whiteSpace=wrap;html=1;startSize=23;" parent="1" vertex="1">
          <mxGeometry x="530" y="280" width="175" height="90" as="geometry" />
        </mxCell>
        <mxCell id="8MVP1e_BxWUSzV_E4plU-7" value="" style="endArrow=classic;html=1;rounded=0;" parent="1" edge="1">
          <mxGeometry width="50" height="50" relative="1" as="geometry">
            <mxPoint x="180" y="280" as="sourcePoint" />
            <mxPoint x="290" y="190" as="targetPoint" />
            <Array as="points">
              <mxPoint x="280" y="250" />
            </Array>
          </mxGeometry>
        </mxCell>
        <mxCell id="8MVP1e_BxWUSzV_E4plU-8" value="" style="endArrow=classic;html=1;rounded=0;" parent="1" edge="1">
          <mxGeometry width="50" height="50" relative="1" as="geometry">
            <mxPoint x="610" y="280" as="sourcePoint" />
            <mxPoint x="520" y="190" as="targetPoint" />
            <Array as="points">
              <mxPoint x="590" y="260" />
            </Array>
          </mxGeometry>
        </mxCell>
        <mxCell id="hxqkVl39xOy-Wy6YZScj-1" value="UserClass" style="swimlane;fontStyle=0;childLayout=stackLayout;horizontal=1;startSize=26;fillColor=none;horizontalStack=0;resizeParent=1;resizeParentMax=0;resizeLast=0;collapsible=1;marginBottom=0;whiteSpace=wrap;html=1;" vertex="1" parent="1">
          <mxGeometry x="280" y="80" width="250" height="104" as="geometry" />
        </mxCell>
        <mxCell id="hxqkVl39xOy-Wy6YZScj-2" value="+id : int" style="text;strokeColor=none;fillColor=none;align=left;verticalAlign=top;spacingLeft=4;spacingRight=4;overflow=hidden;rotatable=0;points=[[0,0.5],[1,0.5]];portConstraint=eastwest;whiteSpace=wrap;html=1;" vertex="1" parent="hxqkVl39xOy-Wy6YZScj-1">
          <mxGeometry y="26" width="250" height="26" as="geometry" />
        </mxCell>
        <mxCell id="hxqkVl39xOy-Wy6YZScj-3" value="+username: string" style="text;strokeColor=none;fillColor=none;align=left;verticalAlign=top;spacingLeft=4;spacingRight=4;overflow=hidden;rotatable=0;points=[[0,0.5],[1,0.5]];portConstraint=eastwest;whiteSpace=wrap;html=1;" vertex="1" parent="hxqkVl39xOy-Wy6YZScj-1">
          <mxGeometry y="52" width="250" height="26" as="geometry" />
        </mxCell>
        <mxCell id="hxqkVl39xOy-Wy6YZScj-4" value="-email: string" style="text;strokeColor=none;fillColor=none;align=left;verticalAlign=top;spacingLeft=4;spacingRight=4;overflow=hidden;rotatable=0;points=[[0,0.5],[1,0.5]];portConstraint=eastwest;whiteSpace=wrap;html=1;" vertex="1" parent="hxqkVl39xOy-Wy6YZScj-1">
          <mxGeometry y="78" width="250" height="26" as="geometry" />
        </mxCell>
      </root>
    </mxGraphModel>
  </diagram>
</mxfile>
